<svg width="266" height="266" viewBox="0 0 266 266" fill="none" xmlns="http://www.w3.org/2000/svg">
<rect width="266" height="266" rx="10" fill="#FCFBFF"/>
<rect x="23.8384" y="23" width="36.2406" height="36.2406" stroke="#23303B" stroke-width="4"/>
<rect x="29.7065" y="28.8682" width="24.5038" height="24.5038" fill="#C4C4C4" stroke="#23303B" stroke-width="4"/>
<rect x="212.466" y="211.628" width="24.5038" height="24.5038" fill="#C4C4C4" stroke="#23303B" stroke-width="4"/>
<rect x="35.5747" y="216.658" width="13.6053" height="13.6053" fill="#C4C4C4" stroke="#23303B" stroke-width="4"/>
<rect x="212.981" y="29.3838" width="24.312" height="24.312" fill="#C4C4C4"/>
<rect x="23.8384" y="205.76" width="36.2406" height="36.2406" stroke="#23303B" stroke-width="4"/>
<rect x="206.597" y="205.76" width="36.2406" height="36.2406" stroke="#23303B" stroke-width="4"/>
<rect x="206.597" y="23" width="36.2406" height="36.2406" stroke="#23303B" stroke-width="4"/>
<circle cx="70.8813" cy="33.1558" r="6.28759" fill="#23303B"/>
<circle cx="85.9717" cy="33.1558" r="6.28759" fill="#23303B"/>
<circle cx="101.062" cy="33.1558" r="6.28759" fill="#23303B"/>
<circle cx="116.152" cy="33.1558" r="6.28759" fill="#23303B"/>
<circle cx="131.242" cy="33.1558" r="6.28759" fill="#23303B"/>
<circle cx="146.333" cy="33.1558" r="6.28759" fill="#23303B"/>
<circle cx="161.423" cy="33.1558" r="6.28759" fill="#23303B"/>
<circle cx="176.513" cy="33.1558" r="6.28759" fill="#23303B"/>
<circle cx="191.604" cy="49.0847" r="6.28759" fill="#23303B"/>
<circle cx="191.604" cy="65.0134" r="6.28759" fill="#23303B"/>
<circle cx="206.693" cy="71.7205" r="6.28759" fill="#23303B"/>
<circle cx="222.623" cy="71.7205" r="6.28759" fill="#23303B"/>
<circle cx="232.682" cy="84.2949" r="6.28759" fill="#23303B"/>
<circle cx="232.682" cy="101.062" r="6.28759" fill="#23303B"/>
<circle cx="233.521" cy="117.829" r="6.28759" fill="#23303B"/>
<circle cx="233.521" cy="151.363" r="6.28759" fill="#23303B"/>
<circle cx="233.521" cy="168.13" r="6.28759" fill="#23303B"/>
<circle cx="233.521" cy="184.896" r="6.28759" fill="#23303B"/>
<circle cx="222.623" cy="195.795" r="6.28759" fill="#23303B"/>
<circle cx="206.693" cy="195.795" r="6.28759" fill="#23303B"/>
<circle cx="191.604" cy="210.047" r="6.28759" fill="#23303B"/>
<circle cx="191.604" cy="225.976" r="6.28759" fill="#23303B"/>
<circle cx="179.028" cy="232.682" r="6.28759" fill="#23303B"/>
<circle cx="161.423" cy="232.682" r="6.28759" fill="#23303B"/>
<circle cx="126.212" cy="232.682" r="6.28759" fill="#23303B"/>
<circle cx="108.607" cy="232.682" r="6.28759" fill="#23303B"/>
<circle cx="91.002" cy="232.682" r="6.28759" fill="#23303B"/>
<circle cx="73.3965" cy="232.682" r="6.28759" fill="#23303B"/>
<circle cx="73.3965" cy="215.916" r="6.28759" fill="#23303B"/>
<circle cx="73.3965" cy="199.148" r="6.28759" fill="#23303B"/>
<circle cx="57.4678" cy="193.28" r="6.28759" fill="#23303B"/>
<circle cx="39.8623" cy="195.795" r="6.28759" fill="#23303B"/>
<circle cx="33.1558" cy="181.543" r="6.28759" fill="#23303B"/>
<circle cx="33.1558" cy="138.788" r="6.28759" fill="#23303B"/>
<circle cx="33.1558" cy="124.536" r="6.28759" fill="#23303B"/>
<circle cx="33.1558" cy="110.283" r="6.28759" fill="#23303B"/>
<circle cx="33.1558" cy="96.0322" r="6.28759" fill="#23303B"/>
<circle cx="33.1558" cy="81.7803" r="6.28759" fill="#23303B"/>
<circle cx="48.2461" cy="96.0322" r="6.28759" fill="#23303B"/>
<circle cx="48.2461" cy="124.536" r="6.28759" fill="#23303B"/>
<circle cx="48.2461" cy="138.788" r="6.28759" fill="#23303B"/>
<circle cx="48.2461" cy="153.04" r="6.28759" fill="#23303B"/>
<circle cx="48.2461" cy="167.292" r="6.28759" fill="#23303B"/>
<circle cx="48.2461" cy="181.543" r="6.28759" fill="#23303B"/>
<circle cx="63.3364" cy="81.7803" r="6.28759" fill="#23303B"/>
<circle cx="63.3364" cy="110.283" r="6.28759" fill="#23303B"/>
<circle cx="63.3364" cy="124.536" r="6.28759" fill="#23303B"/>
<circle cx="63.3364" cy="138.788" r="6.28759" fill="#23303B"/>
<circle cx="63.3364" cy="153.04" r="6.28759" fill="#23303B"/>
<circle cx="63.3364" cy="167.292" r="6.28759" fill="#23303B"/>
<circle cx="63.3364" cy="181.543" r="6.28759" fill="#23303B"/>
<circle cx="78.4268" cy="81.7803" r="6.28759" fill="#23303B"/>
<circle cx="78.4268" cy="96.0322" r="6.28759" fill="#23303B"/>
<circle cx="78.4268" cy="110.283" r="6.28759" fill="#23303B"/>
<circle cx="78.4268" cy="124.536" r="6.28759" fill="#23303B"/>
<circle cx="78.4268" cy="138.788" r="6.28759" fill="#23303B"/>
<circle cx="78.4268" cy="153.04" r="6.28759" fill="#23303B"/>
<circle cx="78.4268" cy="67.5281" r="6.28759" fill="#23303B"/>
<circle cx="93.5166" cy="81.7803" r="6.28759" fill="#23303B"/>
<circle cx="93.5166" cy="96.0322" r="6.28759" fill="#23303B"/>
<circle cx="93.5166" cy="110.283" r="6.28759" fill="#23303B"/>
<circle cx="93.5166" cy="138.788" r="6.28759" fill="#23303B"/>
<circle cx="93.5166" cy="167.292" r="6.28759" fill="#23303B"/>
<circle cx="93.5166" cy="181.543" r="6.28759" fill="#23303B"/>
<circle cx="93.5166" cy="195.795" r="6.28759" fill="#23303B"/>
<circle cx="93.5166" cy="210.047" r="6.28759" fill="#23303B"/>
<circle cx="101.062" cy="49.0847" r="6.28759" fill="#23303B"/>
<circle cx="108.607" cy="81.7803" r="6.28759" fill="#23303B"/>
<circle cx="108.607" cy="96.0322" r="6.28759" fill="#23303B"/>
<circle cx="108.607" cy="110.283" r="6.28759" fill="#23303B"/>
<circle cx="108.607" cy="124.536" r="6.28759" fill="#23303B"/>
<circle cx="108.607" cy="138.788" r="6.28759" fill="#23303B"/>
<circle cx="108.607" cy="153.04" r="6.28759" fill="#23303B"/>
<circle cx="108.607" cy="167.292" r="6.28759" fill="#23303B"/>
<circle cx="108.607" cy="181.543" r="6.28759" fill="#23303B"/>
<circle cx="108.607" cy="195.795" r="6.28759" fill="#23303B"/>
<circle cx="108.607" cy="210.047" r="6.28759" fill="#23303B"/>
<circle cx="108.607" cy="67.5281" r="6.28759" fill="#23303B"/>
<circle cx="116.152" cy="49.0847" r="6.28759" fill="#23303B"/>
<circle cx="123.697" cy="81.7803" r="6.28759" fill="#23303B"/>
<circle cx="123.697" cy="110.283" r="6.28759" fill="#23303B"/>
<circle cx="123.697" cy="124.536" r="6.28759" fill="#23303B"/>
<circle cx="123.697" cy="138.788" r="6.28759" fill="#23303B"/>
<circle cx="123.697" cy="153.04" r="6.28759" fill="#23303B"/>
<circle cx="123.697" cy="181.543" r="6.28759" fill="#23303B"/>
<circle cx="123.697" cy="195.795" r="6.28759" fill="#23303B"/>
<circle cx="123.697" cy="210.047" r="6.28759" fill="#23303B"/>
<circle cx="123.697" cy="67.5281" r="6.28759" fill="#23303B"/>
<circle cx="131.242" cy="49.0847" r="6.28759" fill="#23303B"/>
<circle cx="138.787" cy="81.7803" r="6.28759" fill="#23303B"/>
<circle cx="138.787" cy="96.0322" r="6.28759" fill="#23303B"/>
<circle cx="138.787" cy="110.283" r="6.28759" fill="#23303B"/>
<circle cx="138.787" cy="124.536" r="6.28759" fill="#23303B"/>
<circle cx="138.787" cy="138.788" r="6.28759" fill="#23303B"/>
<circle cx="138.787" cy="153.04" r="6.28759" fill="#23303B"/>
<circle cx="138.787" cy="167.292" r="6.28759" fill="#23303B"/>
<circle cx="138.787" cy="181.543" r="6.28759" fill="#23303B"/>
<circle cx="138.787" cy="67.5281" r="6.28759" fill="#23303B"/>
<circle cx="146.333" cy="49.0847" r="6.28759" fill="#23303B"/>
<circle cx="153.877" cy="81.7803" r="6.28759" fill="#23303B"/>
<circle cx="153.877" cy="110.283" r="6.28759" fill="#23303B"/>
<circle cx="153.877" cy="124.536" r="6.28759" fill="#23303B"/>
<circle cx="153.877" cy="138.788" r="6.28759" fill="#23303B"/>
<circle cx="153.877" cy="195.795" r="6.28759" fill="#23303B"/>
<circle cx="153.877" cy="210.047" r="6.28759" fill="#23303B"/>
<circle cx="168.968" cy="81.7803" r="6.28759" fill="#23303B"/>
<circle cx="168.968" cy="96.0322" r="6.28759" fill="#23303B"/>
<circle cx="168.968" cy="110.283" r="6.28759" fill="#23303B"/>
<circle cx="168.968" cy="138.788" r="6.28759" fill="#23303B"/>
<circle cx="168.968" cy="153.04" r="6.28759" fill="#23303B"/>
<circle cx="168.968" cy="167.292" r="6.28759" fill="#23303B"/>
<circle cx="168.968" cy="181.543" r="6.28759" fill="#23303B"/>
<circle cx="168.968" cy="195.795" r="6.28759" fill="#23303B"/>
<circle cx="168.968" cy="210.047" r="6.28759" fill="#23303B"/>
<circle cx="168.968" cy="67.5281" r="6.28759" fill="#23303B"/>
<circle cx="176.513" cy="49.0847" r="6.28759" fill="#23303B"/>
<circle cx="184.058" cy="81.7803" r="6.28759" fill="#23303B"/>
<circle cx="184.058" cy="96.0322" r="6.28759" fill="#23303B"/>
<circle cx="198.31" cy="110.283" r="6.28759" fill="#23303B"/>
<circle cx="212.562" cy="110.283" r="6.28759" fill="#23303B"/>
<circle cx="184.058" cy="124.536" r="6.28759" fill="#23303B"/>
<circle cx="198.31" cy="124.536" r="6.28759" fill="#23303B"/>
<circle cx="212.562" cy="124.536" r="6.28759" fill="#23303B"/>
<circle cx="184.058" cy="138.788" r="6.28759" fill="#23303B"/>
<circle cx="198.31" cy="138.788" r="6.28759" fill="#23303B"/>
<circle cx="212.562" cy="138.788" r="6.28759" fill="#23303B"/>
<circle cx="184.058" cy="153.04" r="6.28759" fill="#23303B"/>
<circle cx="198.31" cy="153.04" r="6.28759" fill="#23303B"/>
<circle cx="212.562" cy="153.04" r="6.28759" fill="#23303B"/>
<circle cx="184.058" cy="167.292" r="6.28759" fill="#23303B"/>
<circle cx="198.31" cy="167.292" r="6.28759" fill="#23303B"/>
<circle cx="184.058" cy="181.543" r="6.28759" fill="#23303B"/>
<circle cx="198.31" cy="181.543" r="6.28759" fill="#23303B"/>
<circle cx="212.562" cy="181.543" r="6.28759" fill="#23303B"/>
<circle cx="184.058" cy="195.795" r="6.28759" fill="#23303B"/>
<circle cx="217.592" cy="93.5176" r="6.28759" fill="#23303B"/>
<circle cx="33.1558" cy="67.5281" r="6.28759" fill="#23303B"/>
<circle cx="48.2461" cy="67.5281" r="6.28759" fill="#23303B"/>
<circle cx="63.3364" cy="67.5281" r="6.28759" fill="#23303B"/>
<circle cx="70.8813" cy="49.0847" r="6.28759" fill="#23303B"/>
<circle cx="233.521" cy="134.596" r="6.28759" fill="#23303B"/>
<rect x="22" y="83.2288" width="222" height="4.17293" fill="url(#paint0_linear_404_5539)"/>
<rect x="244" y="168.357" width="222" height="80.9549" transform="rotate(180 244 168.357)" fill="url(#paint1_linear_404_5539)" fill-opacity="0.6"/>
<defs>
<linearGradient id="paint0_linear_404_5539" x1="258.777" y1="85.4543" x2="22" y2="85.4543" gradientUnits="userSpaceOnUse">
<stop offset="0.0154709" stop-color="#456EFE"/>
<stop offset="1" stop-color="#2DC688"/>
</linearGradient>
<linearGradient id="paint1_linear_404_5539" x1="480.777" y1="211.533" x2="244" y2="211.533" gradientUnits="userSpaceOnUse">
<stop offset="0.0154709" stop-color="#456EFE" stop-opacity="0.45"/>
<stop offset="1" stop-color="#2DC688" stop-opacity="0.45"/>
</linearGradient>
</defs>
</svg>
