<svg width="311" height="45" viewBox="0 0 311 45" fill="none" xmlns="http://www.w3.org/2000/svg">
<path fill-rule="evenodd" clip-rule="evenodd" d="M308.5 45C309.881 45 311 43.8807 311 42.5L311 22.5C311 10.0736 300.926 4.40331e-07 288.5 9.83506e-07L268.5 1.85773e-06C267.119 1.91809e-06 266 1.11929 266 2.5C266 3.88072 267.119 5 268.5 5L288.5 5C298.165 5 306 12.835 306 22.5L306 42.5C306 43.8807 307.119 45 308.5 45Z" fill="#23303B"/>
<path fill-rule="evenodd" clip-rule="evenodd" d="M2.5 45C1.11929 45 4.89256e-08 43.8807 1.09278e-07 42.5L9.83506e-07 22.5C1.52668e-06 10.0736 10.0736 4.40331e-07 22.5 9.83506e-07L42.5 1.85773e-06C43.8807 1.91809e-06 45 1.11929 45 2.5C45 3.88072 43.8807 5 42.5 5L22.5 5C12.835 5 5 12.835 5 22.5L5 42.5C5 43.8807 3.88071 45 2.5 45Z" fill="#23303B"/>
</svg>
